<?xml version="1.0" encoding="UTF-8" standalone="no"?>
<svg
   width="800"
   height="195"
   viewBox="0 0 800 195"
   fill="none"
   version="1.1"
   id="svg12"
   sodipodi:docname="logo.svg"
   inkscape:version="1.3.2 (091e20ef0f, 2023-11-25)"
   xmlns:inkscape="http://www.inkscape.org/namespaces/inkscape"
   xmlns:sodipodi="http://sodipodi.sourceforge.net/DTD/sodipodi-0.dtd"
   xmlns:xlink="http://www.w3.org/1999/xlink"
   xmlns="http://www.w3.org/2000/svg"
   xmlns:svg="http://www.w3.org/2000/svg">
  <sodipodi:namedview
     id="namedview12"
     pagecolor="#ffffff"
     bordercolor="#000000"
     borderopacity="0.25"
     inkscape:showpageshadow="2"
     inkscape:pageopacity="0.0"
     inkscape:pagecheckerboard="0"
     inkscape:deskcolor="#d1d1d1"
     inkscape:zoom="1.6"
     inkscape:cx="400"
     inkscape:cy="97.1875"
     inkscape:window-width="1912"
     inkscape:window-height="1003"
     inkscape:window-x="26"
     inkscape:window-y="23"
     inkscape:window-maximized="0"
     inkscape:current-layer="layer1" />
  <g
     clip-path="url(#clip0_4480_9835)"
     id="g12"
     style="display:none">
    <path
       d="m 772.989,0 -27.061,27.0612 h -0.03 l -7.448,7.4476 -7.458,-7.4476 h -0.01 l -7.227,-7.2276 -7.228,7.2276 -22.163,22.1628 -22.162,-22.1628 h -0.01 L 650.089,4.95839 V 34.2889 l -7.228,-7.2277 H 565.356 L 553.89,38.5275 V 27.0612 h -51.463 l -7.328,7.3276 v -0.02 l -9.707,9.7069 -14.665,-14.6553 -21.573,21.573 -2.079,2.0793 -4.979,4.9684 -34.918,-34.9186 -20.704,20.7033 v 0.0399 l -24.052,-24.0521 -7.247,7.2476 h -0.02 -88.152 l -8.827,8.8371 V 7.34761 L 216.66,48.8641 V 37.3179 L 180.041,0.709769 152.261,28.4907 v 7.4076 l -8.838,-8.8371 H 90.7005 v -0.01 l -0.01,0.02 L 63.6193,0 26.3015,37.3179 V 140.174 L 0,166.476 l 26.9812,26.991 -0.01,0.01 1.4895,1.48 h 21.743 L 90.6705,154.49 v -13.256 l 8.9671,8.967 h 83.3934 v -9.097 l 9.107,9.097 7.107,7.108 7.108,-7.108 21.043,-21.033 v 21.033 h 83.343 l 22.293,-22.293 22.303,22.293 h 24.572 v -16.794 l 43.016,43.026 h 0.01 l 25.321,-25.322 v -25.712 l 24.802,24.802 h 21.033 l 27.282,27.281 29.39,-27.271 h 58.781 l 9.537,-9.547 36.628,36.628 27.081,-27.081 h 77.895 L 800,110.894 V 88.7411 64.1292 48.3743 27.0612 v -0.05 z"
       fill="#101010"
       id="path1" />
    <path
       d="m 333.032,73.956 v 29.39 l 29.39,29.391 V 86.132 l 20.773,20.783 20.794,-20.783 -41.567,-41.5565 z"
       fill="#3bb4b4"
       id="path2" />
    <path
       d="m 403.989,44.5755 v 41.5565 46.605 l 29.38,29.39 V 73.956 Z"
       fill="#3bb4b4"
       id="path3" />
    <path
       d="M 274.261,103.346 288.956,88.6512 H 274.261 V 73.9559 h 29.38 l 0.01,-0.01 v 0.01 l 29.381,-29.3904 h -29.381 v 0.01 l -0.01,-0.01 h -29.38 L 244.87,73.9559 v 29.3901 29.391 h 29.391 29.39 l 29.381,-29.391 h -29.381 z"
       fill="#3bb4b4"
       id="path4" />
    <path
       d="m 199.105,132.737 0.02,-0.03 0.03,0.03 v -0.05 l 20.734,-20.733 20.773,-20.7836 V 49.6139 L 199.155,91.1304 V 44.5755 l -29.39,-29.3904 v 88.1609 l 29.34,29.341 z"
       fill="#3bb4b4"
       id="path5" />
    <path
       d="M 165.566,73.976 136.176,44.5955 H 77.3948 v 58.7705 l 29.3902,29.391 h 58.781 z m -58.781,29.39 v -29.39 h 29.391 v 29.39 z"
       fill="#3bb4b4"
       id="path6" />
    <path
       d="M 73.1962,15.1851 43.8058,44.5755 V 147.432 l -29.3805,29.381 h 29.3805 l 29.3904,-29.381 z"
       fill="#3bb4b4"
       id="path7" />
    <path
       d="M 664.974,44.5455 V 73.926 h 29.39 z"
       fill="#3bb4b4"
       id="path8" />
    <path
       d="m 635.583,132.707 29.391,29.38 V 73.926 L 635.583,44.5455 Z"
       fill="#3bb4b4"
       id="path9" />
    <path
       d="m 753.145,44.5455 v 29.3805 29.39 h -0.01 -29.38 v 0.01 -0.01 -29.39 h 29.38 L 723.755,44.5455 694.364,73.926 v 29.39 29.391 h 29.391 v -0.01 0.01 h 29.38 l 29.391,-29.391 V 73.926 44.5455 15.1551 Z"
       fill="#3bb4b4"
       id="path10" />
    <path
       d="M 572.604,103.316 587.299,88.6212 H 572.604 V 73.926 h 29.39 v -0.01 0.01 l 29.391,-29.3905 h -29.391 v 0.01 -0.01 h -29.39 L 543.213,73.926 v 29.39 29.391 h 29.391 29.39 l 29.391,-29.391 h -29.391 z"
       fill="#3bb4b4"
       id="path11" />
    <path
       d="m 450.853,73.976 v 29.39 l 29.391,29.391 V 44.5355 Z m 59.061,-29.3905 -29.68,29.3905 h 29.39 v 88.161 l 29.391,-29.38 V 44.5355 Z"
       fill="#3bb4b4"
       id="path12" />
  </g>
  <defs
     id="defs12">
    <linearGradient
       id="swatch92"
       inkscape:swatch="solid">
      <stop
         style="stop-color:#2e0000;stop-opacity:1;"
         offset="0"
         id="stop92" />
    </linearGradient>
    <linearGradient
       id="swatch89"
       inkscape:swatch="solid">
      <stop
         style="stop-color:#000000;stop-opacity:1;"
         offset="0"
         id="stop89" />
    </linearGradient>
    <linearGradient
       id="linearGradient75"
       inkscape:collect="always">
      <stop
         style="stop-color:#990000;stop-opacity:1;"
         offset="0"
         id="stop75" />
      <stop
         style="stop-color:#990000;stop-opacity:0;"
         offset="1"
         id="stop76" />
    </linearGradient>
    <linearGradient
       id="swatch68"
       inkscape:swatch="solid">
      <stop
         style="stop-color:#000000;stop-opacity:1;"
         offset="0"
         id="stop68" />
    </linearGradient>
    <clipPath
       id="clip0_4480_9835">
      <rect
         width="800"
         height="194.957"
         fill="white"
         id="rect12" />
    </clipPath>
    <radialGradient
       inkscape:collect="always"
       xlink:href="#linearGradient75"
       id="radialGradient77"
       cx="375.82288"
       cy="158.202"
       fx="375.82288"
       fy="158.202"
       r="106.10746"
       gradientTransform="matrix(1,0,0,0.32514703,0,106.76309)"
       gradientUnits="userSpaceOnUse" />
    <radialGradient
       inkscape:collect="always"
       xlink:href="#linearGradient75"
       id="radialGradient78"
       cx="379.42511"
       cy="62.630405"
       fx="379.42511"
       fy="62.630405"
       r="270.11902"
       gradientTransform="matrix(1,0,0,0.18981504,0,50.742213)"
       gradientUnits="userSpaceOnUse" />
    <linearGradient
       inkscape:collect="always"
       xlink:href="#swatch92"
       id="linearGradient92"
       x1="246.28568"
       y1="151.65518"
       x2="563.90497"
       y2="151.65518"
       gradientUnits="userSpaceOnUse" />
    <linearGradient
       inkscape:collect="always"
       xlink:href="#swatch92"
       id="linearGradient93"
       x1="99.927902"
       y1="75.970164"
       x2="519.34234"
       y2="75.970164"
       gradientUnits="userSpaceOnUse" />
  </defs>
  <g
     inkscape:groupmode="layer"
     id="layer1"
     inkscape:label="main">
    <text
       xml:space="preserve"
       style="font-style:normal;font-variant:normal;font-weight:200;font-stretch:normal;font-size:127.213px;font-family:Inter;-inkscape-font-specification:'Inter, Ultra-Light';font-variant-ligatures:normal;font-variant-caps:normal;font-variant-numeric:normal;font-variant-east-asian:normal;opacity:1;mix-blend-mode:luminosity;fill:#990000;fill-opacity:1;stroke:#990000;stroke-width:8.37735;stroke-linecap:round;stroke-linejoin:round;stroke-dasharray:none;stroke-dashoffset:32.6105;stroke-opacity:1;paint-order:stroke fill markers"
       x="79.301521"
       y="116.0245"
       id="text13"
       transform="scale(1.2644818,0.79083779)"><tspan
         sodipodi:role="line"
         id="tspan13"
         x="79.301521"
         y="116.0245"
         style="font-style:normal;font-variant:normal;font-weight:200;font-stretch:normal;font-size:127.213px;font-family:Inter;-inkscape-font-specification:'Inter, Ultra-Light';font-variant-ligatures:normal;font-variant-caps:normal;font-variant-numeric:normal;font-variant-east-asian:normal;fill:#990000;fill-opacity:1;stroke:#990000;stroke-width:8.37735;stroke-linecap:round;stroke-linejoin:round;stroke-dasharray:none;stroke-dashoffset:32.6105;stroke-opacity:1;paint-order:stroke fill markers">PAINITE</tspan></text>
    <text
       xml:space="preserve"
       style="font-style:normal;font-variant:normal;font-weight:200;font-stretch:normal;font-size:115.088px;font-family:Inter;-inkscape-font-specification:'Inter, Ultra-Light';font-variant-ligatures:normal;font-variant-caps:normal;font-variant-numeric:normal;font-variant-east-asian:normal;opacity:1;mix-blend-mode:luminosity;fill:#990000;fill-opacity:1;stroke:#990000;stroke-width:2.92882;stroke-linecap:round;stroke-linejoin:round;stroke-dasharray:none;stroke-dashoffset:17.3784;stroke-opacity:1;paint-order:stroke fill markers"
       x="219.05412"
       y="199.39722"
       id="text14"
       transform="scale(1.0446822,0.95722891)"><tspan
         sodipodi:role="line"
         x="219.05412"
         y="199.39722"
         id="tspan15"
         style="font-style:normal;font-variant:normal;font-weight:200;font-stretch:normal;font-size:115.088px;font-family:Inter;-inkscape-font-specification:'Inter, Ultra-Light';font-variant-ligatures:normal;font-variant-caps:normal;font-variant-numeric:normal;font-variant-east-asian:normal;fill:#990000;fill-opacity:1;stroke:#990000;stroke-width:2.92882;stroke-linecap:round;stroke-linejoin:round;stroke-dasharray:none;stroke-dashoffset:17.3784;stroke-opacity:1;paint-order:stroke fill markers">JOIAS</tspan></text>
  </g>
</svg>
